<svg width="121" height="121" viewBox="0 0 121 121" fill="none" xmlns="http://www.w3.org/2000/svg">
<circle cx="60.5" cy="60.6943" r="50" fill="white"/>
<circle cx="60.5" cy="60.6943" r="55" stroke="white" stroke-opacity="0.2" stroke-width="10"/>
<g clip-path="url(#clip0_2943_12513)">
<path d="M38.3574 79.7425V46.4092H81.2146V79.7425C81.2146 81.052 80.1431 82.1235 78.8336 82.1235H40.7384C39.4289 82.1235 38.3574 81.052 38.3574 79.7425Z" fill="url(#paint0_linear_2943_12513)"/>
<path opacity="0.05" d="M75.7331 82.1231L81.2152 76.6397V66.1719L65.2676 82.1231H75.7331Z" fill="black"/>
<path opacity="0.07" d="M74.8915 82.1232L81.2153 75.7982V67.0137L66.1094 82.1232H74.8915Z" fill="black"/>
<path d="M81.2146 41.6466V48.7894H38.3574V41.6466C38.3574 40.3371 39.4289 39.2656 40.7384 39.2656H78.8336C80.1431 39.2656 81.2146 40.3371 81.2146 41.6466Z" fill="url(#paint1_linear_2943_12513)"/>
<path opacity="0.05" d="M73.4777 47.0037C71.5051 47.0037 69.9062 45.4049 69.9062 43.4323V39.2656H77.0491V43.4323C77.0491 45.4049 75.4503 47.0037 73.4777 47.0037Z" fill="black"/>
<path opacity="0.07" d="M73.4774 46.1109C71.9976 46.1109 70.7988 44.9121 70.7988 43.4323V39.2656H76.156V43.4323C76.156 44.9121 74.9572 46.1109 73.4774 46.1109Z" fill="black"/>
<path opacity="0.05" d="M46.0949 47.0037C44.1222 47.0037 42.5234 45.4049 42.5234 43.4323V39.2656H49.6663V43.4323C49.6663 45.4049 48.0675 47.0037 46.0949 47.0037Z" fill="black"/>
<path opacity="0.07" d="M46.0965 46.1109C44.6168 46.1109 43.418 44.9121 43.418 43.4323V39.2656H48.7751V43.4323C48.7751 44.9121 47.5763 46.1109 46.0965 46.1109Z" fill="black"/>
<path d="M46.0963 45.2181C45.1105 45.2181 44.3105 44.4181 44.3105 43.4324V38.6705C44.3105 37.6848 45.1105 36.8848 46.0963 36.8848C47.082 36.8848 47.882 37.6848 47.882 38.6705V43.4324C47.882 44.4181 47.082 45.2181 46.0963 45.2181Z" fill="#3CCBF4"/>
<path d="M76.4521 55.3374V58.9089C76.4521 59.2374 76.1854 59.5041 75.8569 59.5041H72.2854C71.9569 59.5041 71.6902 59.2374 71.6902 58.9089V55.3374C71.6902 55.0089 71.9569 54.7422 72.2854 54.7422H75.8569C76.1854 54.7422 76.4521 55.0089 76.4521 55.3374ZM66.9283 55.3374V58.9089C66.9283 59.2374 66.6616 59.5041 66.333 59.5041H62.7616C62.433 59.5041 62.1664 59.2374 62.1664 58.9089V55.3374C62.1664 55.0089 62.433 54.7422 62.7616 54.7422H66.333C66.6616 54.7422 66.9283 55.0089 66.9283 55.3374ZM57.4045 55.3374V58.9089C57.4045 59.2374 57.1378 59.5041 56.8092 59.5041H53.2378C52.9092 59.5041 52.6426 59.2374 52.6426 58.9089V55.3374C52.6426 55.0089 52.9092 54.7422 53.2378 54.7422H56.8092C57.1378 54.7422 57.4045 55.0089 57.4045 55.3374Z" fill="white"/>
<path d="M76.4525 63.6704V67.2419C76.4525 67.5704 76.1858 67.8371 75.8572 67.8371H72.2858C71.9572 67.8371 71.6906 67.5704 71.6906 67.2419V63.6704C71.6906 63.3419 71.9572 63.0752 72.2858 63.0752H75.8572C76.1858 63.0752 76.4525 63.3419 76.4525 63.6704ZM66.9287 63.6704V67.2419C66.9287 67.5704 66.662 67.8371 66.3334 67.8371H62.762C62.4334 67.8371 62.1668 67.5704 62.1668 67.2419V63.6704C62.1668 63.3419 62.4334 63.0752 62.762 63.0752H66.3334C66.662 63.0752 66.9287 63.3419 66.9287 63.6704ZM57.4049 63.6704V67.2419C57.4049 67.5704 57.1382 67.8371 56.8096 67.8371H53.2382C52.9096 67.8371 52.6429 67.5704 52.6429 67.2419V63.6704C52.6429 63.3419 52.9096 63.0752 53.2382 63.0752H56.8096C57.1382 63.0752 57.4049 63.3419 57.4049 63.6704ZM47.881 63.6704V67.2419C47.881 67.5704 47.6144 67.8371 47.2858 67.8371H43.7144C43.3858 67.8371 43.1191 67.5704 43.1191 67.2419V63.6704C43.1191 63.3419 43.3858 63.0752 43.7144 63.0752H47.2858C47.6144 63.0752 47.881 63.3419 47.881 63.6704Z" fill="white"/>
<path d="M66.9287 72.0044V75.5758C66.9287 75.9044 66.662 76.1711 66.3334 76.1711H62.762C62.4334 76.1711 62.1667 75.9044 62.1667 75.5758V72.0044C62.1667 71.6758 62.4334 71.4092 62.762 71.4092H66.3334C66.662 71.4092 66.9287 71.6758 66.9287 72.0044ZM57.4048 72.0044V75.5758C57.4048 75.9044 57.1382 76.1711 56.8096 76.1711H53.2382C52.9096 76.1711 52.6429 75.9044 52.6429 75.5758V72.0044C52.6429 71.6758 52.9096 71.4092 53.2382 71.4092H56.8096C57.1382 71.4092 57.4048 71.6758 57.4048 72.0044ZM47.881 72.0044V75.5758C47.881 75.9044 47.6144 76.1711 47.2858 76.1711H43.7144C43.3858 76.1711 43.1191 75.9044 43.1191 75.5758V72.0044C43.1191 71.6758 43.3858 71.4092 43.7144 71.4092H47.2858C47.6144 71.4092 47.881 71.6758 47.881 72.0044Z" fill="white"/>
<path d="M73.4771 45.2181C72.4914 45.2181 71.6914 44.4181 71.6914 43.4324V38.6705C71.6914 37.6848 72.4914 36.8848 73.4771 36.8848C74.4628 36.8848 75.2628 37.6848 75.2628 38.6705V43.4324C75.2628 44.4181 74.4628 45.2181 73.4771 45.2181Z" fill="#3CCBF4"/>
<path d="M88.0961 66.8151L85.808 64.5282C85.4604 64.1794 84.8937 64.1794 84.5449 64.5282L83.4688 65.6056L87.0176 69.1544L88.0949 68.0782C88.4437 67.7282 88.4437 67.1639 88.0961 66.8151Z" fill="#C94F60"/>
<path d="M65.7429 83.3331L64.5488 88.0759L69.2929 86.8819L69.7905 82.7676L65.7429 83.3331Z" fill="#F0F0F0"/>
<path d="M83.9929 72.1806L69.2929 86.8806L65.7441 83.3318L80.4441 68.6318L83.9929 72.1806Z" fill="#EDBE00"/>
<path d="M80.4395 68.6311L83.4668 65.6025L87.018 69.1514L83.9906 72.1799L80.4395 68.6311Z" fill="url(#paint2_linear_2943_12513)"/>
<path d="M65.1536 85.6768L64.5488 88.0756L66.9464 87.4708L65.1536 85.6768Z" fill="#787878"/>
</g>
<defs>
<linearGradient id="paint0_linear_2943_12513" x1="38.8503" y1="48.3878" x2="70.9491" y2="71.8318" gradientUnits="userSpaceOnUse">
<stop stop-color="#28AFEA"/>
<stop offset="1" stop-color="#047ED6"/>
</linearGradient>
<linearGradient id="paint1_linear_2943_12513" x1="38.8574" y1="39.9894" x2="80.2598" y2="48.4085" gradientUnits="userSpaceOnUse">
<stop stop-color="#0077D2"/>
<stop offset="1" stop-color="#0B59A2"/>
</linearGradient>
<linearGradient id="paint2_linear_2943_12513" x1="83.7287" y1="65.8275" x2="83.7287" y2="72.3621" gradientUnits="userSpaceOnUse">
<stop stop-color="#DEDEDE"/>
<stop offset="1" stop-color="#D6D6D6"/>
</linearGradient>
<clipPath id="clip0_2943_12513">
<rect width="57.1429" height="57.1429" fill="white" transform="translate(31.2148 32.123)"/>
</clipPath>
</defs>
</svg>
