<svg width="120" height="121" viewBox="0 0 120 121" fill="none" xmlns="http://www.w3.org/2000/svg">
<circle cx="60" cy="60.6943" r="50" fill="white"/>
<circle cx="60" cy="60.6943" r="55" stroke="white" stroke-opacity="0.2" stroke-width="10"/>
<path d="M62.774 37.6098L65.7383 39.2729L69.1371 39.3145C71.1133 39.3395 72.9347 40.3907 73.9442 42.0895L75.6799 45.0121L78.6025 46.7479C80.3025 47.7574 81.3537 49.5788 81.3775 51.555L81.4192 54.9538L83.0823 57.9181C84.049 59.6419 84.049 61.7455 83.0823 63.4693L81.4192 66.4336L81.3775 69.8324C81.3525 71.8086 80.3014 73.63 78.6025 74.6395L75.6799 76.3752L73.9442 79.2979C72.9347 80.9979 71.1133 82.049 69.1371 82.0729L65.7383 82.1145L62.774 83.7776C61.0502 84.7443 58.9466 84.7443 57.2228 83.7776L54.2585 82.1145L50.8597 82.0729C48.8835 82.0479 47.0621 80.9967 46.0525 79.2979L44.3168 76.3752L41.3942 74.6395C39.6942 73.63 38.643 71.8086 38.6192 69.8324L38.5775 66.4336L36.9145 63.4693C35.9478 61.7455 35.9478 59.6419 36.9145 57.9181L38.5775 54.9538L38.6192 51.555C38.6442 49.5788 39.6954 47.7574 41.3942 46.7479L44.3168 45.0121L46.0525 42.0895C47.0621 40.3895 48.8835 39.3383 50.8597 39.3145L54.2585 39.2729L57.2228 37.6098C58.9478 36.6431 61.0502 36.6431 62.774 37.6098Z" fill="url(#paint0_linear_2943_12558)"/>
<path opacity="0.05" d="M69.7269 51.3751L57.6174 63.4846L51.4602 57.3274C50.5304 56.3977 49.0233 56.3977 48.0935 57.3274L46.4102 59.0108C45.4805 59.9405 45.4805 61.4477 46.4102 62.3774L55.934 71.9012C56.8638 72.831 58.3709 72.831 59.3007 71.9012L74.7769 56.4251C75.7066 55.4953 75.7066 53.9882 74.7769 53.0584L73.0935 51.3751C72.1638 50.4453 70.6566 50.4453 69.7269 51.3751Z" fill="black"/>
<path opacity="0.07" d="M56.3556 71.4812L46.8318 61.9574C46.1342 61.2597 46.1342 60.1288 46.8318 59.4324L48.5151 57.749C49.2128 57.0514 50.3437 57.0514 51.0401 57.749L57.6187 64.3264L70.1485 51.7967C70.8461 51.099 71.977 51.099 72.6735 51.7967L74.3568 53.48C75.0544 54.1776 75.0544 55.3086 74.3568 56.005L58.8806 71.4812C58.1842 72.1776 57.0532 72.1776 56.3556 71.4812Z" fill="black"/>
<path d="M56.7772 71.0601L47.2534 61.5363C46.7879 61.0708 46.7879 60.3173 47.2534 59.853L48.9367 58.1697C49.4022 57.7042 50.1558 57.7042 50.6201 58.1697L57.6189 65.1685L70.5701 52.2173C71.0355 51.7518 71.7891 51.7518 72.2534 52.2173L73.9367 53.9006C74.4022 54.3661 74.4022 55.1197 73.9367 55.5839L58.4605 71.0601C57.9963 71.5256 57.2415 71.5256 56.7772 71.0601Z" fill="white"/>
<defs>
<linearGradient id="paint0_linear_2943_12558" x1="43.8025" y1="44.4979" x2="76.6014" y2="77.2967" gradientUnits="userSpaceOnUse">
<stop stop-color="#1EB28F"/>
<stop offset="1" stop-color="#3FD6B2"/>
</linearGradient>
</defs>
</svg>
