<svg width="184" height="48" viewBox="0 0 184 48" fill="none" xmlns="http://www.w3.org/2000/svg">
<g clip-path="url(#clip0_2885_11272)">
<path d="M137.009 38.4708C135.202 37.9848 133.379 38.1602 131.57 38.5329C130.355 38.7829 129.218 39.2269 128.348 40.1415C127.142 41.41 126.991 42.9503 127.322 44.6226C128.23 44.385 129.112 44.135 130.006 43.9254C131.987 43.4611 133.973 43.0093 136.027 43.1071C136.909 43.1491 137.787 43.2779 138.399 44.0636C138.331 44.1288 138.297 44.1785 138.25 44.2018C138.135 44.2592 138.014 44.3074 137.894 44.3539C136.42 44.9347 134.881 45.2064 133.306 45.3151C133.154 45.3259 132.91 45.4579 132.88 45.5775C132.563 46.8305 133.482 48.0059 134.777 47.9795C136.741 47.9407 138.224 46.9811 139.345 45.4346C140.155 44.3182 140.59 43.0497 140.324 41.6755C139.976 39.8729 138.68 38.9211 137.007 38.4708H137.009Z" fill="#1EB28F"/>
<path d="M122.32 38.3653C119.168 37.8669 116.128 38.3125 113.38 40.0438C112.152 40.817 111.357 41.9474 111.043 43.3262C112.57 43.174 114.073 42.9318 115.58 42.8945C118.099 42.8324 120.622 42.865 123.141 42.9349C124.312 42.9675 124.311 43.0498 124.562 41.8992C124.982 39.9801 124.242 38.6681 122.322 38.3653H122.32Z" fill="#1EB28F"/>
<path d="M175.85 23.8816L175.846 23.8552C175.305 21.3119 174.801 19.3711 174.349 18.0854C173.768 16.4349 173.248 15.7626 172.553 15.7626L172.472 15.7673C171.382 15.907 170.117 17.0933 168.495 19.4999L168.291 19.8027L168.45 20.1319C169.666 22.6628 170.289 24.717 170.302 26.2371C170.308 26.8876 170.17 27.3581 169.895 27.636C169.644 27.8891 169.237 28.0196 168.686 28.0273C168.38 27.9575 167.203 27.2199 167.166 20.0216V19.7002L166.392 19.1335H165.925C165.1 19.1335 163.824 19.5698 162.025 20.4657L161.671 20.6412V21.0355C161.671 21.4299 161.653 22.7031 161.618 25.0399C161.574 27.7385 160.542 27.8767 160.095 27.8985C159.794 27.8457 158.645 27.1904 158.902 20.2996L158.905 20.2157L158.886 20.1334C158.766 19.6117 158.237 19.4083 158.061 19.3416L157.951 19.2996H157.833C156.902 19.2996 155.566 19.7654 153.748 20.7219L153.408 20.902V21.2871C153.408 21.7156 153.463 22.6612 153.58 24.1766C153.575 25.7231 153.083 26.7634 152.076 27.3535C151.582 27.487 151.071 27.5506 150.555 27.5398C148.878 27.5258 147.66 27.1283 146.933 26.3613C146.268 25.6579 145.963 24.585 146.03 23.1721V17.6926L146.022 17.6398C145.825 16.4753 145.034 16.3495 144.705 16.3495C143.479 16.3495 142.053 17.0311 140.34 18.4332L140.101 18.6289L140.193 23.4562C139.938 26.3069 138.202 27.6019 134.731 27.5398L134.596 27.5367C132.971 27.5072 131.784 27.1128 131.07 26.3597C130.405 25.6564 130.101 24.5834 130.168 23.1689V17.6895L130.16 17.6367C129.961 16.4737 129.172 16.348 128.842 16.348C127.618 16.348 126.19 17.0296 124.478 18.4317L124.238 18.6273L124.33 23.4546C124.075 26.3054 122.344 27.605 118.869 27.5382L118.291 27.5274C117.472 27.4575 116.693 27.2727 115.972 26.9684C115.267 26.5771 114.778 26.0787 114.478 25.4483C114.372 25.1315 114.223 24.4437 114.091 22.9547L114.08 22.8801C113.851 21.7948 113.129 20.6318 111.87 19.3229L111.838 19.2919C110.287 17.8898 108.493 16.7734 106.485 15.9613C106.718 15.862 106.99 15.7455 107.31 15.6104L107.332 15.6011C109.428 14.6245 111.558 13.4553 113.665 12.1277L113.696 12.106C118.009 9.01613 120.11 6.75075 120.307 4.97758L120.311 4.61269C120.311 3.86895 119.747 2.86591 118.483 1.35824L117.893 0.65332L117.439 1.45296C117.113 2.02745 116.451 2.80535 115.475 3.76337C114.075 4.96826 112.686 6.00856 111.356 6.85012C107.046 9.48505 102.782 11.6914 98.6851 13.4072C97.7684 13.5469 97.4483 14.9443 97.2587 16.9877L97.2556 17.0467C97.2556 17.5901 97.4731 18.3494 98.5064 18.8788L98.5577 18.9052L98.6121 18.9223C100.253 19.4207 101.779 19.9471 103.138 20.4828C104.443 21.0216 105.834 21.787 107.27 22.7559C107.837 23.2699 108.395 23.8226 108.791 24.4825C109.529 25.7154 107.425 26.72 106.527 26.9839C105.301 27.3441 103.935 27.383 102.666 27.4435C101.939 27.4792 101.21 27.4979 100.481 27.5087C99.8737 27.518 99.2646 27.5196 98.6571 27.518C94.3003 27.5056 94.9576 26.8612 94.3019 26.4871C93.6959 26.1408 93.2671 25.9405 92.1282 26.1889C91.2813 26.3722 90.68 27.0212 90.4345 28.0149C90.0368 29.6266 90.6474 31.8438 91.7428 32.7615C92.8662 33.7024 95.4719 33.895 97.4203 33.895C98.5484 33.895 99.4573 33.8297 99.7308 33.808C104.648 33.8049 108.368 32.8562 110.801 30.9868C113.076 32.8593 115.64 33.808 118.429 33.808H118.946C121.81 33.808 124.479 32.8655 126.889 31.0038C128.701 32.8267 131.23 33.7661 134.416 33.8033V33.8065H134.809C137.672 33.8065 140.342 32.864 142.752 31.0023C144.489 32.7491 146.882 33.6869 149.882 33.7956V33.8065H150.521C152.244 33.8065 154.076 33.3826 155.971 32.5472C157.272 33.3841 158.537 33.8065 159.733 33.8065C161.251 33.8065 162.778 33.3158 164.279 32.3469C165.396 33.3189 166.778 33.808 168.405 33.808C169.209 33.808 170.075 33.6884 170.998 33.4493L171.072 33.4245C174.425 32.1016 176.125 29.6903 176.125 26.2557V26.2122C176.065 25.352 175.976 24.5648 175.858 23.8723L175.85 23.8816Z" fill="#1EB28F"/>
<path d="M182.184 7.86425C181.948 6.16561 181.702 4.91879 181.432 4.05084C181.187 3.26362 180.803 2.3584 180.006 2.3584C178.635 2.3584 177.123 3.73874 175.248 6.70129L175.104 6.92798L175.166 7.19038C177.439 16.7084 178.592 23.9486 178.592 28.7092C178.592 30.5429 178.404 31.9372 178.035 32.8549L177.683 33.7306H178.074V33.8144H178.713C179.21 33.8144 179.947 33.6685 180.961 33.3673L181.017 33.3486C183.025 32.5459 184.002 29.5942 184.002 24.3259V23.399C184.002 19.0545 183.391 13.8266 182.186 7.86425H182.184Z" fill="#1EB28F"/>
<path d="M71.5828 43.9299C70.9474 43.1132 70.0337 42.9797 69.117 42.9362C66.9837 42.8353 64.9187 43.3042 62.8615 43.7855C61.9339 44.0029 61.0156 44.2638 60.074 44.5091C59.7306 42.7716 59.8876 41.1708 61.1399 39.8526C62.0427 38.9023 63.2251 38.4411 64.4883 38.1803C66.3668 37.7921 68.2624 37.6105 70.1394 38.1151C71.8781 38.5824 73.2236 39.5715 73.5857 41.4456C73.8622 42.8725 73.4101 44.1908 72.5695 45.3522C71.4042 46.9608 69.8628 47.9561 67.8227 47.998C66.4771 48.0244 65.5216 46.804 65.851 45.5012C65.882 45.377 66.1353 45.2388 66.2938 45.228C67.9299 45.1146 69.5288 44.8336 71.0623 44.2296C71.1866 44.1799 71.3125 44.1302 71.4321 44.0712C71.4803 44.0464 71.5145 43.9951 71.586 43.9284L71.5828 43.9299Z" fill="#0052CC"/>
<path d="M84.7583 27.9525C83.5308 30.4741 81.2934 32.2442 78.1128 33.2099C76.6927 33.6416 75.1855 33.9832 73.6333 34.2269C69.4707 34.8775 65.3672 34.8962 61.4346 34.2828C57.5905 33.6835 52.2316 32.3746 50.078 27.9525C48.6688 25.0567 48.4512 21.8147 49.4348 18.3134C49.6508 17.5417 50.1604 16.5185 51.3599 16.0216C51.9721 15.767 52.6076 15.6396 53.2835 15.6396C54.0293 15.6396 54.8248 15.7934 55.698 16.1039C55.6623 16.2654 55.6141 16.4781 55.5629 16.7032C55.1915 18.3507 54.8248 19.9794 54.7844 20.2636C54.5234 22.0709 54.5514 23.6174 54.8745 24.9884C55.3547 27.0318 57.7615 28.4447 61.6521 28.9664C65.507 29.4835 69.4023 29.4928 73.234 28.999C74.3263 28.8577 75.7495 28.6233 77.0578 28.0705C78.8338 27.319 79.8717 26.0303 80.0581 24.3441C80.2088 22.9792 80.1653 21.5306 79.9261 19.9127C79.8934 19.6953 79.6557 18.5727 79.3481 17.1271C79.2673 16.7498 79.1849 16.3648 79.1305 16.1086C80.8008 15.5154 82.1884 15.4906 83.4749 16.0247C84.0746 16.2731 84.5019 16.6536 84.8065 17.0681C85.111 17.4827 85.2912 17.9299 85.4 18.3165C86.3835 21.8178 86.166 25.0598 84.7568 27.9556L84.7583 27.9525Z" fill="#0052CC"/>
<path d="M98.0021 27.5364C95.9527 27.5644 95.4523 26.8408 95.2799 26.2446C95.3343 25.5257 95.3622 24.931 95.3622 24.4761V23.4326C95.3622 16.975 94.6086 11.0965 93.1217 5.96173C92.1987 1.86883 91.4871 1.0459 90.6372 1.0459H90.5781L90.5207 1.05677C89.2963 1.28657 87.974 2.65294 86.3597 5.35773L86.2695 5.50834V5.6838C86.2695 6.10924 86.4171 6.51294 86.7077 6.88248C87.5763 9.06091 88.3873 12.2315 89.1207 16.312C89.5884 19.6223 89.9442 24.0475 90.1788 29.4618L90.1819 29.499C90.3917 31.547 91.5803 33.9863 96.0583 33.9863H97.8343C98.3066 33.9863 98.65 33.6447 98.65 33.1743V27.524L98.0021 27.5333V27.5364Z" fill="#0052CC"/>
<path d="M19.6036 42.4598C18.4476 40.9009 17.3382 39.4305 16.2629 37.9368C16.0004 37.5719 15.7176 37.4415 15.2794 37.4523C13.1259 37.5051 10.9832 37.4446 8.94156 36.6279C4.48378 34.8423 1.73204 31.6002 0.645952 26.9375C0.624199 26.8459 0.616431 26.7512 0.608662 26.658C0.604 26.6037 0.613323 26.5478 0.622646 26.4049C0.771808 26.5679 0.880572 26.6797 0.981568 26.7977C3.78769 30.0988 7.36603 31.83 11.6917 31.8937C16.0439 31.9573 20.3975 31.9325 24.7497 31.9046C29.4654 31.8735 33.0018 27.7294 32.3414 23.0635C31.8427 19.5404 29.5229 17.0266 26.1123 16.3528C25.5436 16.241 24.9517 16.213 24.3705 16.2099C20.9041 16.1959 17.436 16.2177 13.9696 16.1959C12.0242 16.1835 10.7237 14.4383 11.2458 12.6046C11.5783 11.4354 12.638 10.5783 13.8748 10.5736C17.7375 10.5581 21.6033 10.4743 25.4613 10.5969C31.9312 10.8019 37.3042 15.9102 37.9132 22.3524C38.4633 28.1719 36.347 32.7321 31.2678 35.7754C29.1655 37.0362 26.8286 37.5424 24.3907 37.4368C23.4864 37.398 22.9582 37.6868 22.4734 38.4352C21.5971 39.7891 20.6042 41.0701 19.6051 42.4598H19.6036Z" fill="#0052CC"/>
<path d="M29.4415 0.907024C33.8993 2.69262 36.651 5.93465 37.7371 10.5974C37.7589 10.689 37.7666 10.7837 37.7744 10.8769C37.7791 10.9312 37.7697 10.9871 37.7604 11.13C37.6112 10.9669 37.5025 10.8551 37.4015 10.7371C34.5954 7.4361 31.017 5.70485 26.6913 5.64119C22.3392 5.57753 17.9855 5.60237 13.6334 5.63032C8.91767 5.66137 5.38128 9.80552 6.04163 14.4714C6.54039 17.9944 8.86018 20.5082 12.2707 21.1821C12.8394 21.2939 13.4314 21.3218 14.0125 21.325C17.479 21.3389 20.947 21.3172 24.4135 21.3389C26.3588 21.3514 27.6593 23.0966 27.1372 24.9303C26.8047 26.0995 25.7451 26.9566 24.5083 26.9612C20.6456 26.9768 16.7798 27.0606 12.9218 26.9379C6.45494 26.7314 1.08043 21.6231 0.4729 15.1809C-0.0771368 9.36145 2.20691 5.02788 7.04382 1.67716C10.1483 -0.473321 14.5361 0.0778855 19.2239 0.029752C23.6413 -0.0152761 27.5024 -0.0634097 29.4415 0.907024Z" fill="#1EB28F"/>
</g>
<defs>
<clipPath id="clip0_2885_11272">
<rect width="183.607" height="48" fill="white" transform="translate(0.392578)"/>
</clipPath>
</defs>
</svg>
